<?xml version="1.0" encoding="utf-8"?>
<!-- Generator: Adobe Illustrator 17.0.0, SVG Export Plug-In . SVG Version: 6.00 Build 0)  -->
<!DOCTYPE svg PUBLIC "-//W3C//DTD SVG 1.1//EN" "http://www.w3.org/Graphics/SVG/1.1/DTD/svg11.dtd">
<svg version="1.1" id="Layer_1" xmlns="http://www.w3.org/2000/svg" xmlns:xlink="http://www.w3.org/1999/xlink" x="0px" y="0px"
	 width="365.425px" height="169.696px" viewBox="0 0 365.425 169.696" enable-background="new 0 0 365.425 169.696"
	 xml:space="preserve">
<path fill="#19496A" d="M213.974,96.434c-3.333,6.295-9.444,13.706-22.222,13.706c-14.63,0-24.447-11.113-24.447-26.115
	c0-7.407,2.409-14.074,6.667-18.888c4.446-4.814,10.557-7.591,17.78-7.223c12.778,0,18.888,7.407,22.222,14.446h31.114
	c-5.186-25.187-27.224-43.151-54.448-43.151c-30.741,0-54.26,24.447-54.26,54.632c0,30.557,23.886,55.004,55,55.004
	c27.78,0,48.337-19.076,53.891-42.411H213.974z"/>
<path fill="#07A5A7" d="M3.49,44.516v61.122c0,0.086,0.012,0.172,0.012,0.255c0.137,16.757,13.753,30.299,30.538,30.299v-30.299
	V44.516H3.49z"/>
<path fill="#CD3032" d="M18.767,37.534L18.767,37.534c10.365,0,18.767-8.402,18.767-18.767C37.534,8.402,29.132,0,18.767,0
	S0,8.402,0,18.767C0,29.132,8.402,37.534,18.767,37.534"/>
<path fill="#19496A" d="M315.262,29.209c-15.734,0-25.912,7.031-32.579,14.805v-11.29h-28.874v136.971h0h30.726v-34.242v-9.255
	c3.703,3.887,12.402,12.77,30.914,12.77c29.243,0,49.975-24.248,49.975-53.863C365.425,61.227,351.728,29.209,315.262,29.209z
	 M334.699,84.179c0,12.962-9.627,26.1-25.731,26.1c-7.214,0-13.698-2.96-18.32-7.586c-4.631-4.627-7.406-11.106-7.406-18.324
	c0-7.402,2.776-14.069,7.219-18.697c4.627-4.811,11.106-7.774,18.508-7.774c16.845,0,25.731,14.069,25.731,26.1V84.179z"/>
<path fill="#1A4869" d="M97.266,61.765c0-5.745-4.309-7.66-9.575-7.66c-5.266,0-8.618,2.873-8.618,6.703
	c0,5.745,4.788,8.139,19.15,11.969c24.417,6.703,32.077,16.278,32.077,31.119c0,21.544-18.672,34.949-41.652,34.949
	s-39.737-12.927-41.652-33.992h30.641c0.958,6.703,5.745,9.575,11.49,9.575c5.266,0,10.533-2.873,10.533-8.139
	c0-5.745-3.351-8.618-18.672-13.405c-25.853-7.66-32.556-18.193-32.556-30.162c0-20.108,19.15-33.513,39.737-33.513
	c22.023,0,37.822,11.969,39.258,32.077H97.266V61.765z"/>
</svg>
